<svg width="1040" height="530" viewBox="0 0 1040 530" fill="none" xmlns="http://www.w3.org/2000/svg">
<path d="M241.836 49.2236C241.462 46.2702 240.706 43.3777 239.587 40.6189C239.445 40.0971 239.195 39.6108 238.854 39.191C238.513 38.7711 238.088 38.4268 237.607 38.18C236.963 38.0127 236.288 38.0052 235.641 38.158L225.551 39.7016C224.706 39.7401 223.897 40.0542 223.248 40.5959C221.934 41.9776 223.228 44.2025 223.188 46.1087C223.143 48.2523 221.238 49.9922 219.172 50.5678C217.063 50.9938 214.887 50.9668 212.79 50.4887L198.68 48.2968C202.836 46.9705 206.534 44.503 209.354 41.1759C211.211 38.9769 212.199 34.8715 209.515 33.8302C208.718 33.6115 207.887 33.5447 207.065 33.6335C200.672 33.6832 195.641 28.3474 189.657 26.1001C185.827 24.7547 181.669 24.6546 177.778 25.8141C173.887 26.9736 170.463 29.3332 167.995 32.5556L175.511 32.9179C176.219 32.8789 176.92 33.0658 177.514 33.4517C179.161 34.8047 177.113 37.4035 177.345 39.5221C177.646 42.2746 181.302 42.8623 184.058 43.1407C186.814 43.419 190.31 45.6574 188.984 48.0887C175.133 52.8582 161.038 38.7653 146.491 40.5001C142.81 40.9392 139.333 42.3851 135.738 43.2943C113.78 48.8482 91.0796 34.0297 68.6482 37.168C63.6615 38.0178 58.7603 39.31 54.0029 41.0293C50.95 42.0314 47.7656 43.1144 45.5473 45.4384C43.329 47.7625 42.4848 51.737 44.5863 54.1671C38.7941 54.644 32.9633 54.0899 27.3647 52.5307C28.8787 53.372 30.1381 54.6052 31.0109 56.1009C31.8837 57.5966 32.3377 59.2996 32.3251 61.0311C23.2813 62.5054 14.477 65.1891 6.14904 69.0101C7.70336 71.594 9.5188 74.0117 11.5668 76.2251L0.117676 83.5782C3.98575 84.5525 5.98564 89.8253 3.73622 93.1185C7.74697 91.3348 10.2326 86.7204 14.5215 85.7849C17.3312 85.172 20.1902 86.3211 22.8557 87.4005C25.5212 88.4799 28.4508 89.5266 31.2102 88.7165C33.9695 87.9063 36.0048 84.3296 34.2514 82.0507C46.0456 78.6106 58.2346 76.7069 70.5163 76.3866C71.4638 76.2677 72.4247 76.4501 73.2628 76.9077C74.8616 78.0165 74.4409 80.4116 74.3548 82.3549C74.2687 84.2983 75.7838 86.8524 77.5212 85.9764C75.4771 87.7484 77.2245 91.0842 79.1856 92.9475C81.1467 94.8109 83.5104 97.382 82.3098 99.8058C81.9964 100.438 81.4649 100.945 81.1634 101.583C80.2735 103.467 81.6865 105.664 83.3532 106.915C85.0198 108.166 87.0613 109.041 88.2191 110.774C89.3768 112.506 88.8511 115.539 86.7808 115.781L80.8965 108.312C78.8861 110.396 77.5078 113.007 76.9215 115.843C83.1614 120.942 84.0999 131.321 78.876 137.457C76.2064 140.592 72.4101 142.497 69.0967 144.943C65.7833 147.388 62.7174 150.87 62.7257 154.988C62.7401 162.101 62.1587 168.71 64.8251 175.305C69.7419 187.465 75.4184 199.304 81.8212 210.753C83.5026 213.759 85.6757 217.054 89.0818 217.572C84.7771 207.095 80.902 196.456 77.4565 185.654C79.7006 185.662 82.294 185.84 83.6095 187.658C84.6989 189.163 84.4649 191.209 84.8034 193.036C85.2339 194.806 85.9518 196.493 86.9286 198.03L107.485 234.636C109.189 237.671 111.144 240.928 114.401 242.157C116.483 242.943 118.892 242.795 120.809 243.926C122.311 244.812 123.323 246.386 124.854 247.221C129.184 249.583 135.206 245.054 139.253 247.873C140.41 248.68 141.146 249.96 142.212 250.883C145.95 254.119 152.081 251.955 156.396 254.368C159.176 255.924 160.617 259.035 162.101 261.854C165.816 268.917 171.827 275.836 179.789 276.398C182.29 276.575 184.845 276.101 187.289 276.657C189.734 277.213 192.141 279.346 191.748 281.821C191.076 286.065 193.173 290.713 192.61 294.973C191.584 302.732 180.574 306.142 179.628 313.912C179.421 315.613 179.745 317.369 179.34 319.035C178.843 321.075 177.31 322.737 176.765 324.766C175.733 328.61 178.488 332.436 181.514 335.022C184.541 337.609 188.151 339.839 189.806 343.459C191.555 347.286 190.696 351.748 191.265 355.917C192.506 365.017 200.369 371.764 208.461 376.114C210.927 377.439 213.574 378.722 215.17 381.021C217.252 384.022 217.045 387.979 217.74 391.564C219.444 400.346 226.839 407.582 227.049 416.525C227.198 422.881 223.663 428.648 221.552 434.645C219.573 440.391 218.857 446.497 219.452 452.545C220.048 458.593 221.942 464.442 225.004 469.692C226.583 472.358 228.472 474.871 229.59 477.761C231.583 482.919 230.937 488.782 232.775 493.997C235.205 500.892 241.883 506.587 241.244 513.869C244.276 520.163 250.971 523.256 257.703 525.13L269.769 528.487C272.079 529.13 274.493 529.778 276.846 529.312C279.198 528.847 281.443 526.894 281.383 524.498C275.466 523.164 269.359 521.745 264.482 518.141C259.604 514.536 256.263 508.118 258.114 502.343C258.972 499.666 260.798 496.574 259.062 494.361C258.068 493.095 256.251 492.764 255.13 491.608C253.382 489.805 253.982 486.777 255.239 484.603C256.496 482.429 258.313 480.486 258.82 478.027C259.076 476.651 258.905 475.23 258.33 473.954C257.755 472.679 256.803 471.609 255.603 470.889C257.84 470.045 259.875 468.74 261.575 467.058C263.146 465.265 263.871 462.501 262.636 460.463C266.304 460.928 270.636 461.156 273.044 458.35C274.967 456.11 274.835 452.761 274.075 449.908C273.315 447.055 272.031 444.284 271.991 441.332C280.454 441.733 288.936 441.446 297.352 440.472C296.135 436.375 293.37 432.912 289.642 430.819C293.453 430.174 296.926 425.612 298.13 421.939C299.335 418.267 299.028 414.266 298.283 410.474C297.997 409.497 297.958 408.465 298.169 407.47C298.598 406.102 299.942 405.268 301.186 404.554L320.106 393.691C321.235 393.126 322.259 392.37 323.132 391.458C325.114 389.131 324.821 385.617 323.806 382.733C322.791 379.849 321.165 377.137 320.774 374.105C319.604 365.038 329.314 358.532 332.591 349.996C333.877 346.646 334.139 343.005 334.388 339.426C334.655 335.581 334.675 331.116 331.723 328.638C328.892 326.264 324.47 326.793 321.508 324.584C318.792 322.559 317.856 318.626 314.889 316.99C312.195 315.505 308.818 316.449 305.821 315.751C300.546 314.521 297.226 308.442 291.838 307.88C288.799 307.562 285.358 309.048 282.867 307.278C280.671 305.718 280.583 302.584 280.166 299.924C279.433 295.791 277.451 291.981 274.487 289.008C271.522 286.035 267.718 284.041 263.585 283.296C260.451 282.793 257.04 282.984 254.373 281.262C251.673 279.519 250.435 276.254 248.315 273.84C244.896 269.948 239.513 268.566 234.47 267.381L213.958 262.56C210.317 261.704 205.623 261.25 203.669 264.439C203.09 265.653 202.681 266.941 202.452 268.266C201.72 270.663 200.246 272.766 198.243 274.273C196.24 275.781 193.81 276.614 191.304 276.654C189.585 273.723 186.799 271.568 183.53 270.641C181.45 270.061 179.223 269.997 177.239 269.144C176.159 268.617 175.198 267.875 174.414 266.964C173.63 266.052 173.041 264.99 172.682 263.843C172.323 262.696 172.202 261.488 172.327 260.293C172.451 259.097 172.818 257.94 173.406 256.891C174.588 254.786 175.045 252.351 174.705 249.961C174.366 247.57 173.248 245.358 171.526 243.666C168.038 240.535 162.992 239.779 158.314 240.092C157.089 237.42 159.138 234.405 161.345 232.463C163.552 230.521 166.233 228.612 166.713 225.712C167.469 221.15 161.647 217.686 157.227 219.046C152.806 220.406 149.985 224.698 148.12 228.93C147.049 231.357 146.14 233.914 144.452 235.961C142.764 238.008 140.045 239.473 137.474 238.817C133.834 237.886 132.428 233.563 131.623 229.895C130.542 224.973 129.455 219.983 129.681 214.949C129.908 209.915 131.605 204.746 135.319 201.338C141.369 195.785 150.652 196.329 158.818 197.215C156.888 195.042 157.365 191.38 159.43 189.334C160.519 188.367 161.829 187.679 163.244 187.331C164.66 186.984 166.139 186.986 167.553 187.339C170.014 187.851 172.23 189.176 173.846 191.101C176.167 193.929 176.827 197.748 178.581 200.958C180.335 204.169 184.279 206.907 187.507 205.185C190.295 203.697 190.738 199.832 190.044 196.749C189.35 193.667 187.876 190.669 188.128 187.52C188.607 181.51 194.839 177.893 200.338 175.418C205.837 172.942 212.134 169.614 213.005 163.648C213.035 162.48 213.255 161.325 213.658 160.228C214.268 159.259 215.115 158.462 216.12 157.913C232.169 147.31 248.485 136.577 266.829 130.784C267.783 130.482 267.895 130.817 268.868 130.581C270.229 129.795 269.327 127.619 268.022 126.743C266.717 125.866 264.973 125.194 264.642 123.658C264.398 122.528 265.064 121.419 265.237 120.277C265.662 117.47 262.303 114.878 259.694 116C258.221 114.049 261.136 111.783 263.494 111.134C270.573 109.186 277.84 107.999 285.171 107.594C286.017 107.459 286.884 107.607 287.638 108.013C288.869 108.866 288.712 110.821 287.839 112.039C286.967 113.256 285.609 114.02 284.522 115.05C283.334 116.207 282.486 117.668 282.072 119.273C281.658 120.879 281.693 122.568 282.173 124.155C286 126.101 290.161 128.105 294.4 127.419C298.639 126.733 302.401 121.972 300.409 118.169C298.553 114.628 292.98 113.83 292.022 109.949C290.899 105.405 297.334 101.364 295.884 96.9132C295.25 94.9637 293.306 93.8165 291.815 92.409C290.054 90.6834 288.856 88.4657 288.378 86.0472C287.901 83.6286 288.166 81.1222 289.14 78.8571C286.711 79.2843 284.215 79.123 281.861 78.3866C279.507 77.6503 277.365 76.3605 275.612 74.6253C272.377 71.361 269.796 66.2116 265.201 66.3577C260.985 66.4917 257.353 71.4091 253.411 69.9089C252.441 69.5398 251.418 68.7886 250.478 69.2287C250.17 69.4286 249.912 69.6959 249.723 70.0103C249.533 70.3248 249.418 70.6782 249.385 71.0438C248.383 75.8323 250.106 81.2882 247.496 85.426C244.655 89.9288 238.084 90.5531 234.64 94.6135C232.77 96.8176 232.046 99.7876 230.327 102.111C228.609 104.435 224.962 105.913 222.899 103.888C223.913 101.805 224.19 99.4395 223.685 97.1789C223.179 94.9183 221.922 92.8959 220.118 91.4422C218.203 90.1934 216.14 89.1898 213.975 88.455C211.556 87.4314 209.255 86.1493 207.112 84.6311C206.038 83.9838 205.166 83.0507 204.592 81.9362C204.139 80.5406 204.2 79.0288 204.765 77.6744C205.81 74.6772 207.655 72.0224 210.1 69.9968C212.545 67.9711 215.496 66.6515 218.636 66.1804C221.382 65.807 224.578 65.9385 226.395 63.8471C227.357 62.7404 227.861 61.0673 229.257 60.6179C230.149 60.4386 231.076 60.5527 231.899 60.9431L242.147 64.5494C243.291 65.0655 244.549 65.2736 245.798 65.153C246.417 65.0696 246.982 64.7552 247.379 64.2729C247.776 63.7906 247.976 63.176 247.939 62.5525C247.611 60.8511 244.992 60.0346 245.231 58.3184C245.364 57.7623 245.663 57.2597 246.088 56.877C249.787 52.9415 254.31 49.8723 259.334 47.8889C264.358 45.9055 269.759 45.0571 275.149 45.4045C276.443 47.5284 274.397 50.0434 272.695 51.8564C270.993 53.6695 269.625 56.909 271.683 58.3047C272.527 58.7351 273.465 58.9464 274.412 58.919C276.935 59.2605 279.388 60.004 281.675 61.1214C285.217 62.6621 288.69 64.3479 292.096 66.1788C291.795 63.934 291.508 61.5691 292.359 59.4702C293.21 57.3713 295.629 55.725 297.742 56.5424C299.778 57.3302 300.823 60.0255 302.992 60.2724C305.886 60.6018 307.027 56.3281 305.819 53.6791C304.61 51.0301 302.217 48.8121 302.017 45.9074C301.882 43.9477 302.628 41.5173 301.063 40.3307C300.505 39.9745 299.873 39.7528 299.215 39.6831L260.118 32.4908C257.797 32.0637 254.442 32.3911 254.339 34.7487C254.282 36.0648 255.458 37.3667 254.937 38.5767C254.381 39.8681 252.555 39.75 251.225 40.2068C249.161 40.9155 248.125 43.3653 248.324 45.5378C248.687 47.6964 249.523 49.748 250.772 51.5454C248.229 50.4822 244.379 50.2868 241.836 49.2236Z" fill="#3F3D56"/>
<path d="M210.64 16.0454C208.175 15.2298 205.518 15.1918 203.03 15.9366C200.543 16.6814 198.344 18.1729 196.733 20.209C196.089 21.0564 195.549 22.2245 196.088 23.142C196.86 24.4574 198.829 23.9379 200.28 23.4673C202.414 22.7053 204.736 22.65 206.903 23.3094C208.266 23.7772 209.486 24.604 210.855 25.0541C211.521 25.3328 212.251 25.4248 212.965 25.3204C213.68 25.216 214.353 24.919 214.912 24.4614C215.851 23.5036 215.91 22.0144 215.912 20.6728C215.977 20.224 215.941 19.7662 215.807 19.333C215.672 18.8997 215.443 18.5019 215.135 18.1686C214.587 17.8513 213.971 17.6693 213.339 17.6375C211.923 17.3754 210.642 16.6275 209.718 15.5226" fill="#3F3D56"/>
<path d="M224.738 12.1215C224.186 12.0914 223.636 12.2038 223.14 12.4478C222.644 12.6917 222.22 13.0591 221.907 13.5145C221.594 13.97 221.404 14.4982 221.355 15.0483C221.305 15.5985 221.398 16.1521 221.625 16.656C223.319 17.1179 225.089 17.2333 226.829 16.9952C227.697 16.8605 228.506 16.472 229.153 15.8786C229.801 15.2853 230.258 14.5136 230.467 13.6609C228.419 14.0336 226.305 13.6299 224.537 12.5287" fill="#3F3D56"/>
<path d="M272.036 5.56816C267.425 6.54836 262.945 8.06971 258.69 10.1006C260.696 10.8713 262.401 12.2658 263.554 14.0786C264.707 15.8914 265.247 18.0265 265.095 20.1693C264.915 20.9919 264.935 21.8458 265.155 22.6587C265.645 23.8466 267.066 24.2924 268.315 24.5973C270.558 25.2799 272.901 25.5788 275.244 25.4815C276.416 25.4202 277.554 25.0677 278.556 24.4559C279.557 23.8441 280.39 22.9923 280.98 21.9776C281.319 21.0145 281.718 20.0732 282.172 19.1589C285.166 14.6017 294.058 20.112 297.271 15.7075C298.403 14.1559 298.3 11.8204 299.775 10.5909C300.539 10.0553 301.424 9.71775 302.35 9.60876C308.813 8.32516 315.341 7.39571 321.905 6.82457C325.015 6.554 329.069 5.43754 329.095 2.31662C317.38 0.0165348 305.233 1.65015 294.542 6.96348C290.691 8.89207 285.596 12.9489 281.886 10.3921C280.497 9.43476 280.566 6.8569 278.654 5.7804C276.699 4.67982 274.111 5.12744 272.036 5.56816Z" fill="#3F3D56"/>
<path d="M310.348 12.7304L315.848 13.7867C314.835 13.7419 313.825 13.9134 312.885 14.2898C311.944 14.6662 311.094 15.2388 310.392 15.9694C309.691 16.7 309.153 17.5719 308.815 18.5268C308.477 19.4817 308.346 20.4977 308.432 21.507C313.582 23.2268 319.196 21.5532 324.621 21.7819C330.046 22.0105 336.357 25.8843 335.431 31.2327C335.151 32.8498 334.217 34.4659 334.703 36.0336C335.043 37.1323 336.013 37.912 336.56 38.924C337.7 41.0327 336.789 43.7 335.349 45.6169C333.91 47.5338 331.974 49.0633 330.711 51.1004C327.568 56.1671 329.354 62.7173 331.226 68.3778C331.767 70.5165 332.767 72.5122 334.156 74.2267C336.929 77.175 341.45 77.4314 345.498 77.4905C348.444 77.5335 351.82 77.388 353.683 75.1058C356.115 72.1263 354.414 67.4777 356.016 63.9809C357.471 60.8051 361.176 59.4426 364.534 58.4763C370.685 56.706 376.954 55.201 382.769 52.527C389.99 49.2066 396.739 44.0321 404.676 43.6047C406.902 43.4848 409.184 43.7475 411.329 43.1376C413.474 42.5277 415.511 40.6739 415.349 38.4506C415.21 36.551 413.603 35.1561 412.346 33.724C411.09 32.292 410.104 30.0899 411.258 28.5748L432.062 24.6903C430.587 20.6728 429.438 15.3816 432.827 12.7665C434.049 11.823 435.686 11.4459 436.727 10.3052C438.502 8.36102 437.609 5.01204 435.561 3.35865C433.513 1.70526 430.744 1.32144 428.121 1.10359C418.999 0.346252 409.824 0.846686 400.685 1.34751C382.819 2.32651 364.953 3.30551 347.087 4.2845C343.491 4.48158 339.338 4.1805 336.04 5.40712C333.247 6.44557 331.262 8.35177 328.068 9.02149C322.172 10.2579 315.684 9.42124 310.348 12.7304Z" fill="#3F3D56"/>
<path d="M408.866 56.1848C408.306 56.0962 407.733 56.2261 407.265 56.5477C406.956 56.8878 406.772 57.3231 406.744 57.7816C406.389 59.8055 406.812 61.8887 407.928 63.6141C408.497 64.4605 409.282 65.1394 410.201 65.5801C411.121 66.0209 412.142 66.2075 413.158 66.1206C415.634 65.805 417.459 63.6931 419.735 62.6626C423.244 61.0758 438.144 58.602 427.837 53.0351C424.285 51.1166 421.99 52.8102 419.19 54.0737C416.005 55.7027 412.435 56.4326 408.866 56.1848Z" fill="#3F3D56"/>
<path d="M499.146 9.58781C497.942 10.0794 496.936 10.9555 496.283 12.0795C495.982 12.6502 495.912 13.3147 496.088 13.9355C496.263 14.5562 496.671 15.0858 497.226 15.4146C497.675 15.5775 498.152 15.6531 498.63 15.6372L503.524 15.7834C505.603 15.8455 508.199 16.2881 508.758 18.291C509.173 19.7781 508.245 21.6892 509.365 22.7519C509.846 23.1241 510.424 23.3495 511.03 23.401C512.642 23.815 514.325 23.8693 515.961 23.5601C519.521 22.6053 517.65 20.4328 518.772 18.4983C520.488 15.5384 520.191 17.3301 523.214 15.6338C525.447 14.381 528.332 12.1083 526.469 8.9153C523.228 3.36266 503.928 7.20241 499.146 9.58781Z" fill="#3F3D56"/>
<path d="M595.737 6.79617L592.895 7.17527C586.487 8.03013 580.043 8.89285 573.871 10.8166C576.543 11.8725 579.346 12.5601 582.203 12.8604C583.776 12.9374 585.338 13.1594 586.87 13.5236C589.596 14.3348 592.343 16.4298 594.976 15.3566C596.609 14.6912 597.142 12.9915 598.495 12.0907C599.429 11.4687 602.971 10.4619 603.367 9.83409C606.569 4.75861 598.198 6.46787 595.737 6.79617Z" fill="#3F3D56"/>
<path d="M608.216 19.7076C604.42 21.8294 600.898 24.4077 597.729 27.3849C596.394 28.6396 595.03 30.2002 595.151 32.028C595.312 34.4575 597.901 35.8667 600.144 36.8159L609.228 40.6609C610.33 39.1081 609.321 36.9646 608.182 35.4387C607.043 33.9127 605.69 32.1472 606.193 30.311C606.767 28.2155 609.323 27.5014 611.466 27.1404C614.958 26.5522 624.378 26.5994 623.246 20.9735C621.912 14.3446 611.721 17.7489 608.216 19.7076Z" fill="#3F3D56"/>
<path d="M606.389 394.844C605.524 397.347 605.442 400.295 606.938 402.481C608.616 404.933 611.976 405.847 614.882 405.225C617.777 404.455 620.356 402.797 622.258 400.484C623.998 398.546 625.429 396.353 626.501 393.98C627.997 390.282 629.053 386.422 629.645 382.477L632.466 367.673C633.096 364.364 633.072 354.22 626.989 357.525C625.327 358.428 621.479 365.557 619.738 367.578C616.599 371.222 616.184 374.757 614.531 379.17C612.462 384.699 608.302 389.307 606.389 394.844Z" fill="#3F3D56"/>
<path d="M927.678 470.603C925.688 469.826 923.756 468.907 921.898 467.852C920.035 472.973 919.044 478.369 918.968 483.817L932.588 476.112C934.637 474.953 936.959 473.343 936.915 470.99C936.934 470.699 936.874 470.409 936.741 470.15C936.609 469.89 936.409 469.671 936.162 469.516C935.86 469.395 935.53 469.356 935.208 469.404C933.188 469.572 931.346 470.566 929.441 471.257C927.536 471.948 925.308 472.313 923.56 471.287" fill="#3F3D56"/>
<path d="M999.529 475.178C998.034 475.584 996.574 476.108 995.161 476.744C992.035 478.334 989.909 481.354 987.096 483.448C984.405 485.452 981.165 486.552 977.984 487.622C977.048 488.449 977.478 490.114 978.494 490.84C979.586 491.461 980.838 491.743 982.091 491.649C985.396 491.721 988.877 491.753 991.771 490.158C993.402 489.1 994.928 487.889 996.329 486.541C999.713 483.719 1003.78 481.856 1007.8 480.056C1009.26 479.504 1010.62 478.694 1011.8 477.667C1014.33 475.177 1014.5 471.336 1010.86 470.488C1007.91 469.804 1002.33 474.271 999.529 475.178Z" fill="#3F3D56"/>
<path d="M1031.28 454.447C1031.44 452.733 1031.21 451.005 1030.61 449.393C1030.01 447.781 1029.05 446.326 1027.8 445.14C1027.76 448.567 1027.66 452.219 1025.73 455.054C1024.36 457.073 1022.2 458.437 1020.7 460.361C1019.19 462.285 1018.52 465.334 1020.29 467.022C1021.42 467.881 1022.79 468.354 1024.21 468.372C1027.72 468.786 1031.79 469.017 1034.26 466.478C1035.6 465.092 1036.26 463.04 1037.9 462.021C1038.51 461.765 1039.06 461.374 1039.5 460.879C1040.17 459.802 1039.1 458.383 1037.89 457.995C1036.67 457.607 1035.34 457.789 1034.12 457.42C1032.9 457.052 1031.78 455.683 1032.41 454.574" fill="#3F3D56"/>
<path d="M974.852 328.772C973.008 329.221 971.098 329.333 969.214 329.105C966.085 328.529 963.649 326.172 961.123 324.239C955.117 319.667 947.817 317.117 940.27 316.955C933.406 316.825 926.477 318.685 919.734 317.388C920.175 319.837 922.271 321.674 924.508 322.766C926.745 323.858 929.214 324.407 931.462 325.477C935.062 327.207 937.917 330.176 939.504 333.841C940.228 335.53 940.683 337.368 941.78 338.843C944.021 341.858 948.27 342.52 952.019 342.274C956.907 341.952 962.013 340.547 966.561 342.367C970.04 343.76 972.53 346.804 975.435 349.171C978.34 351.538 982.431 353.295 985.767 351.587C982.302 350.466 979.286 348.267 977.16 345.311C975.034 342.355 973.909 338.797 973.948 335.157C977.22 335.458 986.643 335.341 986.135 329.784C985.705 325.074 977.661 328.264 974.852 328.772Z" fill="#3F3D56"/>
<path d="M932.054 367.09C932.635 363.905 935.812 361.093 934.823 358.01C934.138 355.878 931.666 354.826 929.427 354.773C927.188 354.721 924.988 355.388 922.75 355.45C921.292 355.373 919.832 355.394 918.377 355.512C913.933 356.243 911.194 360.899 907.006 362.555C904.46 363.562 901.599 363.369 898.951 364.065C892.939 365.645 889.135 371.324 884.932 375.903C878.142 383.268 869.296 388.426 859.54 390.707C856.121 391.498 852.447 392.004 849.73 394.224C846.132 397.163 845.246 402.201 844.446 406.777C842.234 419.413 838.854 431.817 834.349 443.828L848.624 445.65C851.338 445.997 854.151 446.336 856.766 445.532C858.666 444.816 860.466 443.857 862.121 442.68C868.479 438.734 875.594 436.167 883.007 435.144C886.746 434.63 890.665 434.537 894.173 435.926C897.681 437.315 900.691 440.465 900.985 444.225C902.502 443.754 904.119 443.703 905.662 444.078C907.206 444.453 908.619 445.241 909.75 446.357C911.985 448.633 913.449 451.555 913.935 454.708C914.311 456.66 914.687 458.999 916.499 459.819C917.978 460.487 919.674 459.767 921.291 459.638C926.779 459.199 931.334 465.596 936.728 464.495C942.513 463.313 943.934 454.651 949.578 452.916C952.82 451.92 957.367 453.131 958.919 450.117C960.287 447.46 957.557 444.394 957.839 441.419C958.185 437.756 962.508 436.201 965.84 434.638C977.328 429.249 982.779 413.792 977.212 402.392C973.914 395.638 967.424 390.321 966.226 382.901C965.304 377.192 967.555 370.535 963.914 366.041C962.062 363.755 958.926 362.494 957.824 359.766C957.13 358.049 957.409 356.101 957.035 354.287C956.662 352.474 955.079 350.576 953.288 351.047C948.087 352.411 946.427 368.472 943.643 372.374C939.41 378.306 930.721 374.398 932.054 367.09Z" fill="#3F3D56"/>
<path d="M835.928 334.841C834.151 334.342 832.21 333.852 830.507 334.564C828.805 335.276 827.81 337.775 829.177 339.015C839.869 338.599 850.626 338.185 861.227 339.637C873.442 341.309 885.53 345.452 897.798 344.233C890.79 342.166 883.666 340.514 876.464 339.284L864.454 336.991C861.233 336.316 857.977 335.813 854.702 335.484C847.85 334.919 842.665 336.729 835.928 334.841Z" fill="#3F3D56"/>
<path d="M846.632 297.614C845.744 297.54 844.645 297.476 844.186 298.239C843.747 298.968 844.249 299.931 844.013 300.748C843.691 301.865 842.228 302.15 841.075 301.998C839.923 301.846 838.676 301.482 837.655 302.037C837.137 302.391 836.748 302.903 836.546 303.497C836.344 304.09 836.34 304.733 836.534 305.329C836.952 306.513 837.627 307.589 838.511 308.48C840.021 310.382 841.742 312.108 843.64 313.623C847.315 316.335 852.294 317.642 854.608 321.578C854.935 322.341 855.437 323.016 856.073 323.549C857.184 324.253 858.633 323.717 859.83 323.171L864.023 321.256C864.778 320.984 865.453 320.525 865.983 319.923C866.941 318.623 866.353 316.776 865.549 315.376C864.745 313.976 863.715 312.527 863.888 310.922C864.196 308.06 867.876 306.965 869.39 304.517C870.915 302.049 869.922 298.869 870.098 295.973C870.304 292.586 872.432 288.18 869.007 285.65C866.097 283.499 863.314 285.486 861.224 287.861C856.817 292.868 854.733 298.29 846.632 297.614Z" fill="#3F3D56"/>
<path d="M872.086 247.01C873.518 249.75 876.502 251.385 878.063 254.054C879.756 256.947 879.563 260.684 881.399 263.488C883.282 266.364 887.072 267.891 888.128 271.163C889.282 274.735 886.665 279.077 888.751 282.198C889.14 282.708 889.631 283.132 890.192 283.443C890.753 283.753 891.373 283.944 892.012 284.003C892.651 284.061 893.295 283.987 893.904 283.784C894.512 283.58 895.072 283.253 895.548 282.822C896.427 281.865 896.898 280.602 896.859 279.303C896.821 278.005 896.276 276.772 895.342 275.868C894.107 274.743 892.334 274.257 891.303 272.942C890.766 272.183 890.408 271.312 890.257 270.396C889.695 267.751 889.785 265.009 890.519 262.406C890.795 261.746 890.865 261.017 890.72 260.316C890.256 258.968 888.429 258.872 887.147 258.246C884.235 256.825 884.305 252.717 884.814 249.517C884.475 251.647 876.886 248.024 876.091 246.818C874.512 244.421 875.371 239.797 875.059 237.149C871.65 238.791 870.336 243.659 872.086 247.01Z" fill="#3F3D56"/>
<path d="M795.623 289.172C794.223 287.605 792.113 285.965 790.234 286.91C788.802 287.631 788.407 289.613 788.969 291.116C789.653 292.575 790.707 293.83 792.025 294.758C795.939 297.985 800.153 300.897 803.568 304.648C809.678 311.361 812.915 320.419 819.56 326.603C820.896 328.037 822.665 328.993 824.596 329.327C826.532 329.507 828.706 328.268 828.929 326.337C829.112 324.747 828.003 323.323 826.919 322.144C824.338 319.337 821.512 316.754 819.074 313.821C817.949 312.694 817.241 311.217 817.069 309.634C817.057 308.055 818.497 306.402 820.028 306.793C818.167 306.317 816.786 303.217 814.054 302.634C811.771 302.147 811.218 303.561 808.501 302.395C803.319 300.173 799.253 293.234 795.623 289.172Z" fill="#3F3D56"/>
<path d="M917.396 136.522C915.91 136.081 914.448 135.559 913.018 134.959C909.17 133.804 904.079 136.631 904.592 140.615C904.933 143.261 907.397 145.046 908.757 147.342C910.775 150.746 910.237 155.064 909.177 158.877C908.917 160.057 908.422 161.173 907.721 162.159C906.742 163.199 905.571 164.041 904.273 164.638C899.077 167.551 894.494 171.443 890.779 176.099C890.375 176.529 890.093 177.059 889.964 177.635C889.78 178.98 891.132 179.959 891.897 181.081C893.595 183.573 892.368 186.926 892.536 189.936C892.51 190.362 892.593 190.787 892.778 191.172C892.963 191.556 893.243 191.887 893.591 192.133C894.615 192.653 895.828 191.77 896.382 190.765C898.224 187.43 896.837 182.077 900.291 180.47C900.944 180.165 901.736 180.037 902.172 179.463C902.864 178.553 902.196 177.205 902.547 176.117C903.073 174.484 905.308 174.411 907.023 174.483C909.978 174.607 912.931 174.213 915.75 173.322C916.856 173.059 917.861 172.477 918.639 171.649C919.672 170.361 919.58 168.529 919.374 166.891C918.34 158.726 915.753 150.834 911.752 143.641C914.786 144.029 918.087 144.364 920.705 142.783C922.171 141.898 923.929 139.251 923.202 137.449C922.052 134.6 919.975 136.999 917.396 136.522Z" fill="#3F3D56"/>
<path d="M528.417 181.43C528.781 183.377 529.137 185.427 528.499 187.301C527.861 189.176 525.853 190.743 523.957 190.168C522.486 189.722 521.636 188.243 520.591 187.116C514.781 180.846 501.673 184.476 498.084 176.718C496.619 173.552 497.614 169.759 496.615 166.417C495.985 164.485 494.731 162.818 493.049 161.676C491.368 160.534 489.355 159.983 487.327 160.109C485.477 160.376 483.676 160.914 481.982 161.704C470.634 166.247 458.72 169.226 446.569 170.559C444.259 170.699 441.975 171.115 439.764 171.796C434.775 173.605 431.366 178.229 428.94 182.948C426.513 187.666 424.722 192.775 421.47 196.967C418.051 201.373 413.261 204.459 408.792 207.796C407.071 208.905 405.638 210.407 404.61 212.178C403.641 214.166 403.696 216.478 403.771 218.689L404.685 245.533C404.802 248.986 404.949 252.562 406.495 255.652C408.426 259.511 412.239 262.038 414.885 265.446C417.584 268.949 418.991 273.277 418.866 277.697C418.809 279.474 418.633 281.576 420.017 282.692C420.859 283.238 421.845 283.521 422.848 283.506L459.172 286.478C465.562 287.001 472.643 287.861 476.815 292.727C478.784 295.024 480.365 298.327 483.381 298.573C484.674 298.679 485.933 298.148 487.227 298.046C490.491 297.787 493.358 300.264 495.168 302.992C497.907 307.15 499.15 312.115 498.694 317.073C498.397 320.185 497.432 323.21 497.224 326.329C496.432 338.197 506.496 348.508 506.691 360.401C506.806 367.396 503.484 373.933 500.245 380.135C505.472 388.051 501.192 398.592 503.273 407.846C505.247 416.626 512.57 423.5 514.395 432.312C515.23 436.346 515.279 441.31 518.837 443.388C520.399 444.149 522.13 444.495 523.864 444.394C534.323 444.518 544.664 442.165 554.039 437.527C558.439 435.344 562.999 432.085 563.767 427.235C564.387 423.324 562.403 418.949 564.422 415.542C566.802 411.527 572.899 411.845 576.4 408.758C582.081 403.749 577.651 394.198 579.953 386.984C582.021 380.5 589.143 377.055 592.673 371.235C594.062 368.732 595.059 366.031 595.629 363.226C597.246 356.522 598.253 349.685 598.637 342.799C598.731 338.616 599.039 334.44 599.561 330.288C603.367 306.649 626.743 290.821 634.333 268.112C635.058 265.943 635.398 263.055 633.468 261.828C632.324 261.282 631.026 261.146 629.793 261.443L613.048 263.553C610.969 263.815 608.764 264.06 606.854 263.197C604.944 262.333 603.575 259.918 604.588 258.083C607.432 252.933 601.582 246.426 598.983 241.148C591.984 226.937 583.649 213.424 574.09 200.79C573.478 200.141 573.095 199.309 572.999 198.422L577.751 198.58C576.147 192.825 573.5 186.528 567.907 184.423C564.756 183.237 561.266 183.647 557.904 183.831C548.274 184.357 537.949 182.903 528.417 181.43Z" fill="#3F3D56"/>
<path d="M557.912 51.7508C560.432 54.4262 563.256 57.2627 566.902 57.729C573.342 58.5527 577.972 51.895 580.92 46.1121C581.03 47.5864 581.71 48.9599 582.816 49.9406C583.923 50.9213 585.368 51.4318 586.846 51.3634C588.435 51.096 589.953 50.5031 591.302 49.6217C604.062 42.6507 618.354 38.9572 632.895 38.8729C632.755 37.7718 633.029 36.6579 633.662 35.7463C634.295 34.8347 635.244 34.1899 636.325 33.9364C639.281 33.3505 641.945 35.9057 643.371 38.5601C644.797 41.2144 645.686 44.291 647.952 46.2778C650.218 48.2646 654.605 48.1781 655.5 45.301C656.359 42.5388 653.48 40.1833 651.089 38.5548C648.698 36.9263 646.177 33.9123 647.787 31.5091C660.005 28.8055 672.298 26.0917 684.8 25.5543C686.928 25.6284 689.049 25.2631 691.03 24.4814C692.936 23.5461 694.452 21.423 693.939 19.3627C691.211 20.0038 688.354 19.8182 685.731 18.8294C683.109 17.8407 680.841 16.0936 679.216 13.811C696.563 12.38 715.013 11.1602 730.386 19.3201C732.231 23.2792 722.829 26.5731 725.344 30.144C726.147 31.2829 727.754 31.4165 729.147 31.4423C739.83 31.6406 750.575 31.8351 761.138 30.2227C764.998 29.6335 768.896 28.8016 772.772 29.2795C779.227 30.0753 784.748 34.3809 791.098 35.7846C793.683 36.356 796.581 36.3754 798.759 34.8725C800.938 33.3696 801.875 29.9476 800.089 27.9939C806.068 22.1356 815.992 23.5875 823.88 26.3922C831.768 29.1968 839.241 33.7198 847.589 34.345C853.576 34.7933 859.646 33.1834 865.561 34.2067C869.279 34.8497 872.739 36.5029 876.372 37.5186C883.243 39.4397 890.512 39.0342 897.647 39.1266C915.851 39.3718 933.856 42.9484 950.771 49.6794C952.971 50.3956 954.987 51.5863 956.677 53.1675C958.25 54.8524 959.053 57.4706 957.995 59.5191L940.517 56.966C942.164 60.2069 946.424 60.7592 949.884 61.8772C953.344 62.9953 956.931 66.8149 954.852 69.797C951.103 68.6037 947.706 72.3506 945.812 75.7981C943.918 79.2456 941.611 83.3743 937.682 83.5843C934.164 83.7724 929.909 80.7778 927.616 83.4515C930.784 87.4468 933.497 91.7825 935.704 96.3784C937.97 101.097 939.584 107.042 936.522 111.287C936.04 112.045 935.309 112.611 934.455 112.889C931.954 113.522 930.329 110.464 928.536 108.61C926.276 106.274 922.859 105.612 919.798 104.517C916.738 103.421 913.514 101.266 913.275 98.0255C913.126 96.0091 914.19 94.1348 914.975 92.2712C916.293 89.13 916.87 85.7273 916.66 82.3273C916.488 79.592 915.721 76.7467 913.756 74.8355C911.791 72.9244 908.398 72.3181 906.289 74.0685C905.304 74.8853 904.515 76.1917 903.237 76.2406C900.979 76.3269 899.244 72.3905 897.427 73.7342C897.641 75.166 897.344 76.6271 896.588 77.8622C891.166 82.5767 882.836 80.5822 875.845 82.2476C872.521 83.1986 869.338 84.5881 866.381 86.3793C865.275 86.8522 864.334 87.642 863.676 88.6492C862.804 90.3444 863.766 92.5155 865.304 93.6426C866.935 94.6427 868.768 95.2681 870.67 95.4738C879.193 97.0873 887.839 99.5852 894.568 105.057C901.296 110.53 905.708 119.576 903.579 127.982L886.773 111.928C887.411 118.668 887.773 125.428 887.859 132.205C887.968 133.529 887.786 134.86 887.327 136.106C886.129 138.751 882.881 139.642 880.036 140.226C879.244 140.376 878.494 140.692 877.833 141.153C877.172 141.614 876.617 142.209 876.203 142.9C875.789 143.591 875.525 144.362 875.43 145.161C875.335 145.961 875.411 146.772 875.651 147.541C876.663 150.835 879.183 153.403 881.492 155.963C883.8 158.522 886.071 161.431 886.373 164.863C886.676 168.296 884.085 172.165 880.646 171.927C878.039 171.746 876.105 169.413 874.994 167.049C873.882 164.685 873.22 162.051 871.549 160.043C866.493 153.963 855.135 156.568 850.605 150.086C849.45 151.396 848.65 152.978 848.279 154.684C847.908 156.39 847.979 158.162 848.486 159.833C850.594 158.514 853.479 159.739 855.062 161.655C856.646 163.572 857.393 166.029 858.636 168.181C860.314 171.085 862.984 173.66 863.218 177.006C863.156 178.271 863.178 179.539 863.282 180.801C863.698 182.829 865.412 184.284 866.601 185.979C869.366 189.922 869.229 195.338 867.447 199.812C865.665 204.285 862.463 208.023 859.291 211.648C853.752 217.978 848.099 224.271 841.531 229.528C839.657 231.028 837.658 232.503 836.49 234.6C835.323 236.697 835.263 239.64 837.057 241.236C835.774 241.3 833.472 241.931 832.189 241.995C831.738 236.849 831.64 231.678 831.895 226.518C826.831 224.087 821.378 230.597 822.032 236.175C822.685 241.753 826.721 246.229 829.594 251.055C831.696 254.584 833.257 258.699 832.556 262.746C831.854 266.792 828.241 270.525 824.148 270.169C817.638 269.601 814.915 260.258 808.469 259.189C807.9 259.056 807.304 259.115 806.772 259.357C805.815 259.882 805.649 261.162 805.595 262.252C805.332 267.602 805.103 273.164 807.192 278.095C810.248 285.311 818.142 291.37 816.486 299.029C807.565 294.883 802.927 284.882 800.821 275.276C798.715 265.669 798.364 255.584 794.589 246.503C791.723 250.176 785.698 247.139 783.079 243.286C780.596 239.633 779.067 235.408 776.658 231.705C774.249 228.003 770.559 224.688 766.146 224.485C761.519 224.271 757.506 227.445 753.977 230.445C751.075 232.911 748.096 235.474 746.399 238.883C743.931 243.844 744.577 249.693 744.458 255.232C744.329 261.221 743.06 267.54 738.977 271.924C734.894 276.308 727.357 277.835 722.854 273.884C720.503 271.821 719.364 268.739 718.35 265.781C713.463 251.52 709.392 236.993 706.158 222.269C705.401 225.629 702.45 229.961 699.63 227.981C698.997 227.449 698.484 226.789 698.126 226.044C692.866 217.132 683.124 211.786 673.282 208.58C663.44 205.375 653.085 203.88 643.352 200.357C637.898 198.383 632.688 195.788 627.826 192.626C626.586 194.446 625.862 196.568 625.731 198.766C625.6 200.965 626.065 203.158 627.079 205.113C629.238 208.934 634.124 211.146 638.306 209.81C640.467 209.12 642.292 207.62 644.437 206.879C646.581 206.138 649.459 206.502 650.397 208.567C651.295 210.544 649.938 212.936 650.611 215C651.636 218.144 656.379 218.386 658.037 221.247C659.271 223.375 658.256 226.202 656.494 227.919C654.732 229.637 652.381 230.579 650.231 231.774C643.252 235.654 638.29 242.276 632.191 247.429C626.092 252.581 617.487 256.343 610.219 253.038C611.951 244.267 601.501 237.828 599.578 229.098C598.946 226.224 599.274 223.171 598.37 220.371C597.062 216.316 593.464 213.529 590.512 210.456C586.932 206.689 584.142 202.243 582.309 197.38C580.475 192.518 579.634 187.338 579.836 182.145C579.995 178.537 580.658 174.87 579.836 171.353C579.014 167.836 576.101 164.432 572.491 164.591C564.248 164.955 553.862 165.568 549.537 158.543C547.993 156.035 547.322 152.363 549.553 150.442C551.128 149.087 553.452 149.215 555.519 149.418L574.094 151.245C578.438 151.672 583.134 152.024 586.862 149.754C590.59 147.484 592.206 141.457 588.754 138.786C586.232 136.834 581.713 136.94 580.979 133.836C580.369 131.252 583.23 128.32 581.685 126.16C580.577 124.611 578.085 125.041 576.576 126.202C575.066 127.363 573.971 129.06 572.281 129.939C569.317 131.482 565.776 130.014 562.587 129.017C559.398 128.019 555.123 127.934 553.576 130.895C551.847 134.206 555.111 138.545 553.394 141.863C551.124 146.25 543.438 143.753 540.251 147.526C536.593 151.856 542.74 158.313 541.506 163.844C539.931 164.624 538.181 164.982 536.426 164.884C534.672 164.785 532.973 164.233 531.495 163.282C530.042 162.294 528.884 160.931 528.144 159.337C527.404 157.743 527.11 155.979 527.293 154.231C527.599 151.743 528.896 149.203 528.027 146.851C527.324 144.95 525.414 143.818 523.64 142.838L505.589 132.867C503.913 135.974 506.032 139.827 508.682 142.162C511.331 144.496 514.65 146.254 516.391 149.326C517.492 151.454 517.739 153.923 517.081 156.227C516.423 158.531 514.91 160.497 512.851 161.724C512.593 161.902 512.3 162.022 511.991 162.076C511.682 162.13 511.365 162.116 511.062 162.036C510.774 161.867 510.523 161.642 510.324 161.374C510.124 161.106 509.981 160.8 509.902 160.476C506.717 152.329 501.935 144.295 494.29 140.039C486.646 135.783 475.661 136.658 470.648 143.828C469.457 145.531 468.658 147.472 467.621 149.272C462.11 158.838 450.296 163.368 439.258 163.072C438.178 163.131 437.104 162.879 436.164 162.345C434.38 161.113 434.46 158.5 434.733 156.349L435.892 147.225C436.124 145.393 436.462 143.367 437.912 142.224C439.957 140.611 442.907 141.629 445.511 141.591C447.484 141.499 449.381 140.803 450.944 139.596C452.508 138.39 453.663 136.732 454.252 134.848C454.778 132.945 454.775 130.934 454.242 129.033C453.71 127.131 452.668 125.411 451.23 124.058C450.037 122.937 448.435 121.53 449.065 120.019C449.317 119.601 449.657 119.243 450.062 118.971C450.466 118.698 450.926 118.518 451.408 118.442C456.085 117.084 461.028 116.728 465.628 115.126C470.227 113.524 474.688 110.245 475.777 105.499C476.111 104.045 476.263 102.283 477.57 101.562C478.226 101.285 478.93 101.141 479.642 101.139C482.135 100.784 484.406 99.5091 486.006 97.5646C487.607 95.6202 488.421 93.1473 488.289 90.6327C490.493 89.0929 493.581 90.2256 495.714 91.8634C497.847 93.5012 499.729 95.665 502.324 96.371C507.16 97.6867 511.833 93.4064 516.845 93.3866C518.952 93.3783 521.134 94.1232 523.117 93.4089C525.127 92.6848 526.327 90.6846 527.87 89.2068C529.412 87.7291 532.119 86.8278 533.544 88.4197L532.331 79.4374C534.774 80.0544 537.32 80.1417 539.8 79.6936C542.279 79.2455 544.634 78.2722 546.706 76.8393L531.029 71.5438C530.483 71.4076 529.979 71.1384 529.563 70.7602C528.423 69.5333 529.555 67.6213 530.482 66.2266C532.699 62.8901 533.071 57.3941 529.425 55.733C526.937 54.5992 524.08 55.9602 521.691 57.2917L510.249 63.6698C509.885 65.8441 512.545 67.0764 514.193 68.541C515.19 69.4271 515.896 70.594 516.218 71.8885C516.539 73.1829 516.462 74.5443 515.995 75.7939C515.529 77.0435 514.695 78.1228 513.604 78.8901C512.512 79.6573 511.215 80.0767 509.88 80.093C510.634 81.0723 511.157 82.2085 511.412 83.4175C511.667 84.6265 511.646 85.8772 511.352 87.0772L503.653 87.6307C502.789 87.8045 501.892 87.6293 501.156 87.1435C500.333 86.4124 500.445 85.1314 500.254 84.0471C499.793 81.4301 497.23 79.5959 494.614 79.1256C491.998 78.6553 489.322 79.2581 486.731 79.8534C485.631 80.2491 484.423 80.2212 483.343 79.7752C482.723 79.3728 482.252 78.7787 482.002 78.0837C480.866 75.3309 481.928 72.0952 483.752 69.7411C485.576 67.3869 488.073 65.666 490.316 63.7061C495.678 59.0022 499.618 52.8928 501.691 46.0681C505.929 44.2929 510.317 41.881 514.555 40.1058C521.089 36.7986 528.416 35.3793 535.713 36.0076L550.066 36.2816C554.315 36.3628 558.68 36.4667 562.609 38.0863C566.538 39.7058 569.991 43.2086 570.262 47.4489C570.344 47.9289 570.303 48.4218 570.142 48.8814C569.981 49.341 569.706 49.7522 569.342 50.0764C568.787 50.3791 568.159 50.5207 567.527 50.4853C563.564 50.6245 561.875 51.6116 557.912 51.7508Z" fill="#3F3D56"/>
<path d="M443.51 96.7193C444.07 96.1887 444.474 95.5138 444.676 94.7689C444.878 94.0239 444.871 93.2377 444.655 92.4966C443.29 91.9702 441.806 91.8351 440.369 92.1064C438.932 92.3777 437.599 93.0446 436.52 94.0322C435.67 94.892 434.937 95.8604 434.341 96.9124C432.455 99.9884 430.787 103.663 431.88 107.101C431.969 107.476 432.132 107.83 432.36 108.141C432.587 108.452 432.874 108.714 433.205 108.913C433.695 109.11 434.223 109.192 434.749 109.155C436.827 109.152 438.903 109.024 440.965 108.772C442.232 108.618 443.703 108.26 444.192 107.082C444.835 105.534 443.278 103.781 443.732 102.167C444.031 101.445 444.483 100.797 445.058 100.268C445.344 100.002 445.563 99.673 445.699 99.3072C445.834 98.9414 445.883 98.549 445.841 98.1611C445.657 97.4037 444.497 96.9741 444.08 97.6321" fill="#3F3D56"/>
<path d="M454.283 82.7556C452.438 82.3319 450.535 82.2125 448.651 82.402C448.234 82.3896 447.821 82.4834 447.451 82.6747C447.092 82.9393 446.831 83.3161 446.711 83.7454C446.313 85.0223 446.411 86.4022 446.985 87.6103C447.559 88.8184 448.567 89.7659 449.809 90.2642C450.486 90.4197 451.134 90.6801 451.73 91.0359C453.323 92.2715 452.308 94.7972 452.609 96.7902C452.948 99.0282 455.115 100.907 454.717 103.135C454.404 104.891 452.529 106.281 452.831 108.038C453.147 109.879 455.484 110.432 457.346 110.579C458.425 110.768 459.536 110.641 460.545 110.213C461.556 109.522 462.275 108.481 462.563 107.291C463.326 105.022 463.646 102.628 463.507 100.239C463.499 99.1519 463.226 98.0836 462.712 97.126C462.151 96.3675 461.529 95.6559 460.853 94.9982C457.285 90.8488 461.042 84.6596 454.283 82.7556Z" fill="#3F3D56"/>
<path opacity="0.8" d="M923.502 407.799C923.502 407.799 650.209 250.973 532.553 280.687C532.553 280.687 283.204 307.513 254.306 366.529C254.306 366.529 175.043 118.908 146.145 110.654" stroke="#6C63FF" stroke-width="2" stroke-miterlimit="10"/>
<path opacity="0.8" d="M254.306 366.529C300.13 244.369 712.959 109.003 712.959 109.003C654.338 123.861 532.553 280.687 532.553 280.687C532.553 280.687 274.948 93.3208 146.145 110.654C146.145 110.654 713.372 129.226 923.502 407.799" stroke="#6C63FF" stroke-width="2" stroke-miterlimit="10"/>
<path d="M146.145 122.623C152.757 122.623 158.117 117.264 158.117 110.654C158.117 104.044 152.757 98.686 146.145 98.686C139.533 98.686 134.173 104.044 134.173 110.654C134.173 117.264 139.533 122.623 146.145 122.623Z" fill="#6C63FF"/>
<path d="M254.306 378.497C260.918 378.497 266.279 373.139 266.279 366.529C266.279 359.919 260.918 354.561 254.306 354.561C247.695 354.561 242.334 359.919 242.334 366.529C242.334 373.139 247.695 378.497 254.306 378.497Z" fill="#6C63FF"/>
<path d="M712.959 120.972C719.571 120.972 724.931 115.613 724.931 109.003C724.931 102.394 719.571 97.0352 712.959 97.0352C706.347 97.0352 700.987 102.394 700.987 109.003C700.987 115.613 706.347 120.972 712.959 120.972Z" fill="#6C63FF"/>
<path d="M923.502 419.767C930.114 419.767 935.474 414.409 935.474 407.799C935.474 401.189 930.114 395.831 923.502 395.831C916.89 395.831 911.53 401.189 911.53 407.799C911.53 414.409 916.89 419.767 923.502 419.767Z" fill="#6C63FF"/>
<path d="M532.553 292.655C539.165 292.655 544.525 287.297 544.525 280.687C544.525 274.077 539.165 268.719 532.553 268.719C525.941 268.719 520.581 274.077 520.581 280.687C520.581 287.297 525.941 292.655 532.553 292.655Z" fill="#6C63FF"/>
</svg>
