<svg width="192" height="156" viewBox="0 0 192 156" fill="none" xmlns="http://www.w3.org/2000/svg">
<path fill-rule="evenodd" clip-rule="evenodd" d="M43 121.383H123.059L163.323 81.1188V2H82.6378L43.235 41.4027L43 121.383Z" stroke="white" stroke-width="2.13333" stroke-linecap="round" stroke-linejoin="round"/>
<path d="M43.1669 41.011H122.872" stroke="white" stroke-width="2.13333" stroke-linecap="round" stroke-linejoin="round"/>
<path d="M122.902 121.22V40.9507" stroke="white" stroke-width="2.13333" stroke-linecap="round" stroke-linejoin="round"/>
<path d="M162.993 2.13971L122.779 41.3015" stroke="white" stroke-width="2.13333" stroke-linecap="round" stroke-linejoin="round"/>
<path d="M43.1566 121.305L82.8067 81.6549V2.31332" stroke="white" stroke-width="1.6" stroke-linecap="round" stroke-dasharray="4.8 4.8"/>
<path d="M83.1078 81.7455H162.916" stroke="white" stroke-width="1.6" stroke-linecap="round" stroke-dasharray="4.8 4.8"/>
<path d="M1.39039 77.2616L1.23808 77.7378L1.23808 77.7378L1.39039 77.2616ZM0.939751 77.1175L4.8228 81.3901L6.58147 75.891L0.939751 77.1175ZM31.9668 80.5011C21.682 81.1857 11.3604 79.9251 1.54269 76.7854L1.23808 77.7378C11.1755 80.9159 21.623 82.1919 32.0332 81.4989L31.9668 80.5011Z" fill="white"/>
<path d="M188.222 98.6681L188.59 98.3291L188.59 98.3291L188.222 98.6681ZM188.485 98.9528L187.218 93.3201L182.973 97.234L188.485 98.9528ZM160.14 91.3071C170.091 88.4034 180.828 91.3864 187.855 99.007L188.59 98.3291C181.306 90.4294 170.175 87.3371 159.86 90.3471L160.14 91.3071Z" fill="white"/>
<path d="M90.4138 150.129L90.2065 150.584L90.2065 150.584L90.4138 150.129ZM90.7445 150.28L84.9977 150.834L87.3907 145.58L90.7445 150.28ZM76.6686 125.056C75.5015 135.417 81.1326 145.352 90.621 149.674L90.2065 150.584C80.3242 146.083 74.4593 135.735 75.6748 124.944L76.6686 125.056Z" fill="white"/>
</svg>
