<svg width="18" height="18" viewBox="0 0 18 18" fill="none" xmlns="http://www.w3.org/2000/svg">
<path d="M13 6.29289L14.1464 5.14645C14.3417 4.95118 14.6583 4.95118 14.8536 5.14645C15.0488 5.34171 15.0488 5.65829 14.8536 5.85355L12.8536 7.85355C12.6583 8.04882 12.3417 8.04882 12.1464 7.85355L10.1464 5.85355C9.95118 5.65829 9.95118 5.34171 10.1464 5.14645C10.3417 4.95118 10.6583 4.95118 10.8536 5.14645L12 6.29289V0.5C12 0.223858 12.2239 0 12.5 0C12.7761 0 13 0.223858 13 0.5V6.29289ZM1 12H6.5C6.77614 12 7 12.2239 7 12.5C7 13.3284 7.67157 14 8.5 14H9.5C10.3284 14 11 13.3284 11 12.5C11 12.2239 11.2239 12 11.5 12H17V5.5C17 5.22386 17.2239 5 17.5 5C17.7761 5 18 5.22386 18 5.5V15.5C18 16.8807 16.8807 18 15.5 18H2.5C1.11929 18 0 16.8807 0 15.5V2.5C0 1.11929 1.11929 0 2.5 0H7.5C7.77614 0 8 0.223858 8 0.5C8 0.776142 7.77614 1 7.5 1H2.5C1.67157 1 1 1.67157 1 2.5V12ZM1 13V15.5C1 16.3284 1.67157 17 2.5 17H15.5C16.3284 17 17 16.3284 17 15.5V13H11.95C11.7184 14.1411 10.7095 15 9.5 15H8.5C7.29052 15 6.28164 14.1411 6.05001 13H1Z" fill="black"/>
</svg>
